<?xml version="1.0" encoding="UTF-8"?>
<svg xmlns="http://www.w3.org/2000/svg" xmlns:xlink="http://www.w3.org/1999/xlink" width="24pt" height="24pt" viewBox="0 0 24 24" version="1.1">
<g id="surface1">
<path style=" stroke:none;fill-rule:nonzero;fill:rgb(0%,0%,0%);fill-opacity:1;" d="M 7.828125 14.5 C 5.949219 14.621094 4.242188 15.335938 3.273438 17.890625 C 3.164062 18.179688 2.898438 18.355469 2.589844 18.355469 C 2.070312 18.355469 0.457031 17.058594 0 16.746094 C 0 20.605469 1.777344 24 6 24 C 9.554688 24 12 21.949219 12 18.367188 C 12 18.21875 11.96875 18.082031 11.953125 17.9375 Z M 21.464844 0 C 20.753906 0 20.085938 0.316406 19.578125 0.769531 C 9.996094 9.332031 9 9.53125 9 12.050781 C 9 12.691406 9.152344 13.304688 9.410156 13.863281 L 12.402344 16.359375 C 12.738281 16.441406 13.085938 16.5 13.449219 16.5 C 16.363281 16.5 18.050781 14.367188 23.347656 4.476562 C 23.695312 3.804688 24 3.078125 24 2.324219 C 24 0.96875 22.78125 0 21.464844 0 Z M 21.464844 0 "/>
</g>
</svg>
